# xmcd
# Track frame offsets:
# 150
# 16091
# 33248
# 48117
# 61289
# 78843
# 91257
# 113533
# 134755
# 154896
# 168190
# 182914
# 194603
# 212320
# 225361
# 238853
# 257394
# 270126
# 282847
# 299381
# 312928
# 325454
# 335504
# 346018
#
# Disc length: 4785 seconds
# Revision: 0
# Processed by: cddbd v1.5.2PL0 Copyright (c) Steve Scherf et al.
# Submitted via: VisiTrax 2.11.1.266 - For more info visit www.synapsa.com
#
DISCID=4012af18
DTITLE=Merle Haggard - Merle Haggard 43 Ledgendary Hits
DYEAR=1900
DGENRE=
TTITLE0=Twinkle Twinkle Lucky Star
TTITLE1=I'll Never Swim Kern River Again
TTITLE2=Natural High lyrics
TTITLE3=That's The Way Love Goes
TTITLE4=A Place To Fall Apart lyrics
TTITLE5=Let's Chase Each Other ('Round the Room Tonight) lyrics
TTITLE6=Going Where The Lonely
TTITLE7=Are The Good Times Really Over
TTITLE8=Pancho and Lefty
TTITLE9=Big City
TTITLE10=My Favorite Memory
TTITLE11=Rainbow Stew
TTITLE12=I Think I'll Just Stay Here and Drink
TTITLE13=Misery and Gin
TTITLE14=The Way I Am lyrics
TTITLE15=Footlights
TTITLE16=Its Been A Grand Afternoon
TTITLE17=I'm Always On A Mountain When I Fall
TTITLE18=Ramblin' Fever
TTITLE19=Cherokee Maiden
TTITLE20=Mama Tried
TTITLE21=Roots Of My Raising
TTITLE22=02.\tSing A Sad Song
TTITLE23=Swinging Doors
EXTD=
EXTT0=
EXTT1=
EXTT2=
EXTT3=
EXTT4=
EXTT5=
EXTT6=
EXTT7=
EXTT8=
EXTT9=
EXTT10=
EXTT11=
EXTT12=
EXTT13=
EXTT14=
EXTT15=
EXTT16=
EXTT17=
EXTT18=
EXTT19=
EXTT20=
EXTT21=
EXTT22=
EXTT23=
PLAYORDER=
